<svg width="496" height="512" viewBox="0 0 496 512" fill="none" xmlns="http://www.w3.org/2000/svg">
<path fill-rule="evenodd" clip-rule="evenodd" d="M248 504C384.967 504 496 392.967 496 256C496 119.033 384.967 8 248 8C111.033 8 0 119.033 0 256C0 392.967 111.033 504 248 504ZM248.001 368C282.901 368 315.801 352.6 338.201 325.8C343.901 319 354.001 318.1 360.801 323.7C367.601 329.3 368.501 339.4 362.801 346.2C334.301 380.4 292.401 400 248.001 400C203.601 400 161.701 380.4 133.301 346.3C127.601 339.5 128.501 329.5 135.301 323.8C142.001 318.1 152.101 319 157.801 325.8C180.201 352.6 213.101 368 248.001 368ZM200.001 208C200.001 225.7 185.701 240 168.001 240C150.301 240 136.001 225.7 136.001 208C136.001 190.3 150.301 176 168.001 176C185.701 176 200.001 190.3 200.001 208ZM360.001 208C360.001 225.7 345.701 240 328.001 240C310.301 240 296.001 225.7 296.001 208C296.001 190.3 310.301 176 328.001 176C345.701 176 360.001 190.3 360.001 208Z" fill="black"/>
</svg>
