<svg width="60" height="60" viewBox="0 0 60 60" fill="none" xmlns="http://www.w3.org/2000/svg">
<g clip-path="url(#clip0_614_18533)">
<path d="M43.5 2.5C38.125 2.5083 33.0898 5.12988 30 9.52783C26.9102 5.12988 21.875 2.5083 16.5 2.5C7.70996 2.5 0 10.6782 0 20C0 29.085 5.12988 38.4419 14.8359 47.0601C19.333 51.0454 24.2661 54.5098 29.541 57.3882C29.8291 57.5366 30.1709 57.5366 30.459 57.3882C35.7319 54.5098 40.6636 51.0449 45.1592 47.0601C54.8701 38.4419 60 29.085 60 20C60 10.6782 52.29 2.5 43.5 2.5Z" fill="black"/>
</g>
<defs>
<clipPath id="clip0_614_18533">
<rect width="60" height="60" fill="white"/>
</clipPath>
</defs>
</svg>
