<svg width="512" height="512" viewBox="0 0 512 512" fill="none" xmlns="http://www.w3.org/2000/svg">
<mask id="mask0_614_18594" style="mask-type:luminance" maskUnits="userSpaceOnUse" x="15" y="0" width="497" height="497">
<path d="M15.2656 0.734375H511.266V496.734H15.2656V0.734375Z" fill="white"/>
</mask>
<g mask="url(#mask0_614_18594)">
<path fill-rule="evenodd" clip-rule="evenodd" d="M263.266 496.734C400.233 496.734 511.266 385.701 511.266 248.734C511.266 111.767 400.233 0.734344 263.266 0.734344C126.299 0.734344 15.2656 111.767 15.2656 248.734C15.2656 385.701 126.299 496.734 263.266 496.734ZM255.998 422.129C311.889 422.129 357.196 376.819 357.196 320.928C292.401 347.768 219.594 347.768 154.799 320.928C154.799 376.819 200.106 422.129 255.998 422.129ZM327.189 268.686L403.639 221.668C424.62 208.765 431.17 181.296 418.266 160.314C405.362 139.332 377.893 132.784 356.912 145.688L356.442 145.977L356.153 145.507C343.249 124.525 315.779 117.977 294.798 130.88C273.816 143.785 267.268 171.253 280.171 192.235L327.189 268.686ZM184.814 268.686L231.831 192.236C244.735 171.254 238.187 143.785 217.205 130.88C196.224 117.977 168.754 124.525 155.85 145.506L155.561 145.977L155.091 145.688C134.11 132.784 106.64 139.332 93.7366 160.314C80.8328 181.296 87.3828 208.765 108.364 221.668L184.814 268.686Z" fill="black"/>
</g>
</svg>
