<svg width="496" height="512" viewBox="0 0 496 512" fill="none" xmlns="http://www.w3.org/2000/svg">
<path fill-rule="evenodd" clip-rule="evenodd" d="M248 504C384.967 504 496 392.967 496 256C496 119.033 384.967 8 248 8C111.033 8 0 119.033 0 256C0 392.967 111.033 504 248 504ZM200 208C200 225.7 185.7 240 168 240C150.3 240 136 225.7 136 208C136 190.3 150.3 176 168 176C185.7 176 200 190.3 200 208ZM296 208C296 190.3 310.3 176 328 176C345.7 176 360 190.3 360 208C360 225.7 345.7 240 328 240C310.3 240 296 225.7 296 208ZM136 352C136 343.2 143.2 336 152 336H344C352.8 336 360 343.2 360 352C360 360.8 352.8 368 344 368H152C143.2 368 136 360.8 136 352Z" fill="black"/>
</svg>
