<svg width="60" height="60" viewBox="0 0 60 60" fill="none" xmlns="http://www.w3.org/2000/svg">
<g clip-path="url(#clip0_614_18516)">
<path d="M12.1216 58.5835C11.8993 58.5835 11.677 58.5148 11.4901 58.3784C11.1593 58.1378 10.9939 57.7308 11.0637 57.3281L14.3834 37.9771L0.323925 24.2742C0.0318028 23.9885 -0.0734471 23.5622 0.0522085 23.1744C0.178938 22.7857 0.515093 22.5021 0.919984 22.4431L20.3483 19.6196L29.0378 2.01383C29.2183 1.64653 29.592 1.41455 30.0001 1.41455C30.4093 1.41455 30.7831 1.64653 30.9624 2.01383L39.6509 19.6196L59.0803 22.4431C59.4851 22.5021 59.8202 22.7846 59.948 23.1744C60.0737 23.5622 59.9695 23.9896 59.6763 24.2742L45.6168 37.9792L48.9354 57.3291C49.0042 57.7319 48.8388 58.1389 48.5091 58.3795C48.1783 58.6222 47.739 58.6533 47.3771 58.4611L30.0001 49.3258L12.621 58.4611C12.4642 58.5427 12.2923 58.5835 12.1216 58.5835ZM3.38154 24.2549L16.2865 36.8344C16.5389 37.0803 16.6549 37.4369 16.5947 37.7849L13.5478 55.5463L29.5007 47.1607C29.8132 46.9953 30.1859 46.9953 30.5006 47.1607L46.4513 55.5463L43.4055 37.7849C43.3454 37.4369 43.4614 37.0814 43.7138 36.8344L56.6187 24.2549L38.7853 21.6634C38.4352 21.6129 38.1334 21.3927 37.9766 21.0759L30.0001 4.9168L22.0237 21.077C21.8669 21.3938 21.5651 21.614 21.215 21.6644L3.38154 24.2549Z" fill="black"/>
<path d="M12.1216 58.5835C11.8993 58.5835 11.677 58.5148 11.4901 58.3784C11.1593 58.1378 10.9939 57.7308 11.0637 57.3281L14.3834 37.9771L0.323925 24.2742C0.0318028 23.9885 -0.0734471 23.5622 0.0522085 23.1744C0.178938 22.7857 0.515094 22.5021 0.919984 22.4431L20.3483 19.6196L29.0378 2.01383C29.2183 1.64653 29.592 1.41455 30.0001 1.41455C30.4093 1.41455 30.7831 1.64653 30.9624 2.01383L39.6509 19.6196L59.0803 22.4431C59.4852 22.5021 59.8202 22.7846 59.948 23.1744C60.0737 23.5622 59.9695 23.9896 59.6763 24.2742L45.6169 37.9792L48.9354 57.3291C49.0042 57.7319 48.8388 58.1389 48.5091 58.3795C48.1783 58.6222 47.739 58.6533 47.3771 58.4611L30.0001 49.3258L12.621 58.4611C12.4642 58.5427 12.2924 58.5835 12.1216 58.5835Z" fill="black"/>
</g>
<defs>
<clipPath id="clip0_614_18516">
<rect width="60" height="60" fill="white"/>
</clipPath>
</defs>
</svg>
