<svg width="496" height="512" viewBox="0 0 496 512" fill="none" xmlns="http://www.w3.org/2000/svg">
<path fill-rule="evenodd" clip-rule="evenodd" d="M248 504C384.967 504 496 392.967 496 256C496 119.033 384.967 8 248 8C111.033 8 0 119.033 0 256C0 392.967 111.033 504 248 504ZM247.998 336C295.998 336 340.898 330.5 371.098 320.8C376.398 319 382.298 320.2 386.598 323.9C390.798 327.6 392.798 333.2 391.898 338.7C382.598 393.7 308.698 432 248.098 432C187.498 432 113.498 393.7 104.298 338.7C103.398 333.1 105.398 327.6 109.598 323.9C113.798 320.3 119.598 319.1 124.898 320.8C155.098 330.5 199.998 336 247.998 336ZM149.498 359.7C170.998 383.7 212.998 400 247.998 400C282.998 400 324.998 383.7 346.598 359.7C289.098 370.5 206.998 370.5 149.498 359.7ZM199.998 208C199.998 225.7 185.698 240 167.998 240C150.298 240 135.998 225.7 135.998 208C135.998 190.3 150.298 176 167.998 176C185.698 176 199.998 190.3 199.998 208ZM359.998 208C359.998 225.7 345.698 240 327.998 240C310.298 240 295.998 225.7 295.998 208C295.998 190.3 310.298 176 327.998 176C345.698 176 359.998 190.3 359.998 208Z" fill="black"/>
</svg>
