<?xml version="1.0" encoding="utf-8"?>
<!-- Generator: Adobe Illustrator 24.1.0, SVG Export Plug-In . SVG Version: 6.00 Build 0)  -->
<svg version="1.1" id="Layer_1" xmlns="http://www.w3.org/2000/svg" xmlns:xlink="http://www.w3.org/1999/xlink" x="0px" y="0px"
	 viewBox="0 0 512 494" style="enable-background:new 0 0 512 494;" xml:space="preserve">
<style type="text/css">
	.st0{fill:#FFD93B;}
	.st1{opacity:0.102;}
	.st2{fill:#5C4100;stroke:#F4C534;stroke-miterlimit:10;}
</style>
<g id="Layer_3_">
	<path id="Layer" class="st0" d="M400.1,493.6c-3.6,0-7.1-0.8-10.4-2.5L256,423l-133.7,68.2c-3.3,1.7-6.8,2.5-10.4,2.5
		c-4.7,0-9.4-1.5-13.4-4.3c-7-5-10.5-13.5-9.2-22l23-149.6L6.6,210.2c-6-6.1-8.1-15-5.4-23.2c2.7-8.1,9.6-14.1,18.1-15.5l147.9-24.1
		l68.5-134.6c3.9-7.7,11.8-12.5,20.4-12.5c8.6,0,16.5,4.8,20.4,12.5l68.5,134.6l147.9,24.1c8.4,1.4,15.4,7.4,18.1,15.5
		c2.7,8.1,0.6,17.1-5.4,23.2L399.7,317.6l23,149.6c1.3,8.5-2.2,17-9.2,22C409.5,492.2,404.8,493.6,400.1,493.6z"/>
	<g id="Layer_2_" class="st1">
		<path id="Layer_1_" class="st2" d="M146.6,477.6c-7-5-10.5-13.5-9.2-22l23-149.6L54.6,198.5c-6-6.1-8.1-15-5.4-23.2
			c1.2-3.8,3.4-7.1,6.2-9.7l-36.2,5.9c-8.4,1.4-15.4,7.4-18.1,15.5c-2.7,8.1-0.6,17.1,5.4,23.2l105.7,107.4l-23,149.6
			c-1.3,8.5,2.2,17,9.2,22c4,2.9,8.7,4.3,13.4,4.3c3.6,0,7.1-0.8,10.4-2.5l25.3-12.9C147.3,478,146.9,477.8,146.6,477.6z"/>
	</g>
</g>
</svg>
