<svg width="16" height="16" viewBox="0 0 16 16" fill="none" xmlns="http://www.w3.org/2000/svg">
<g clip-path="url(#clip0_747_2010)">
<path d="M5.33331 11.3333L7.99998 14L10.6666 11.3333" stroke="white" stroke-width="1.33333" stroke-linecap="round" stroke-linejoin="round"/>
<path d="M8 8V14" stroke="white" stroke-width="1.33333" stroke-linecap="round" stroke-linejoin="round"/>
<path d="M13.92 12.06C14.4996 11.6524 14.9342 11.0708 15.1608 10.3994C15.3874 9.72808 15.3942 9.002 15.1802 8.32654C14.9662 7.65107 14.5425 7.06138 13.9707 6.64303C13.3988 6.22467 12.7085 5.99943 12 5.99999H11.16C10.9594 5.21857 10.5843 4.49282 10.0627 3.87737C9.54112 3.26193 8.88672 2.77283 8.14876 2.44689C7.4108 2.12095 6.60852 1.96667 5.80231 1.99566C4.99609 2.02466 4.20696 2.23617 3.49432 2.61427C2.78168 2.99237 2.16411 3.52722 1.68808 4.17854C1.21206 4.82986 0.88999 5.58068 0.746129 6.37449C0.602269 7.16829 0.640362 7.98438 0.857542 8.76133C1.07472 9.53828 1.46533 10.2558 1.99996 10.86" stroke="white" stroke-width="1.33333" stroke-linecap="round" stroke-linejoin="round"/>
</g>
<defs>
<clipPath id="clip0_747_2010">
<rect width="16" height="16" fill="white"/>
</clipPath>
</defs>
</svg>
