<svg width="272" height="273" viewBox="0 0 272 273" fill="none" xmlns="http://www.w3.org/2000/svg">
<path d="M2.62279 99.023C-12.6686 167.174 40.9456 173.238 110.323 198.917C151.211 208.975 191.897 228.636 217.576 159.259C230.779 123.589 269.949 139.181 271.401 81.1447C242.256 10.7801 200.595 0.524813 161.079 0.00447943C121.563 -0.515854 103.552 44.445 79.1382 56.8171C44.5578 74.3415 17.675 58.3559 2.62279 99.023Z" fill="#EBEBFD"/>
<rect x="51.5" y="54.5" width="174" height="91" stroke="#8686CE" stroke-width="3"/>
<rect x="60.5" y="64.5" width="156" height="81" stroke="#8686CE" stroke-width="3"/>
<rect x="74" y="96" width="64" height="4" rx="2" fill="#8686CE"/>
<rect x="104" y="103" width="34" height="4" rx="2" fill="#8686CE"/>
<rect x="74" y="110" width="42" height="4" rx="2" fill="#8686CE"/>
<rect x="74" y="117" width="64" height="4" rx="2" fill="#8686CE"/>
<rect x="74" y="131" width="64" height="4" rx="2" fill="#8686CE"/>
<rect x="74" y="124" width="62" height="4" rx="2" fill="#8686CE"/>
<path d="M128.114 46.1286H100.276C96.3287 46.1286 93.1286 49.3287 93.1286 53.2762V69.0762V71.0512C93.1286 73.2847 94.9392 75.0952 97.1726 75.0952C98.0556 75.0952 98.7715 75.8111 98.7715 76.694V79.9857C98.7715 80.9157 99.8332 81.4466 100.577 80.8886L105.292 77.3524C106.92 76.1314 108.9 75.4714 110.935 75.4714H128.114C132.062 75.4714 135.262 72.2713 135.262 68.3238V53.2762C135.262 49.3287 132.062 46.1286 128.114 46.1286Z" fill="#D0D0FF" stroke="#8686CE" stroke-width="2.25714"/>
<rect width="24.0762" height="3.00952" rx="1.50476" transform="matrix(-1 0 0 1 126.61 54.781)" fill="#8686CE"/>
<rect width="24.0762" height="3.00952" rx="1.50476" transform="matrix(-1 0 0 1 126.609 63.0572)" fill="#8686CE"/>
<path d="M127 35.5H164C169.247 35.5 173.5 39.7533 173.5 45V66V68.625C173.5 71.5935 171.094 74 168.125 74C166.951 74 166 74.9514 166 76.125V80.5C166 81.7361 164.589 82.4416 163.6 81.7L157.333 77C155.17 75.3772 152.538 74.5 149.833 74.5H127C121.753 74.5 117.5 70.2467 117.5 65V45C117.5 39.7533 121.753 35.5 127 35.5Z" fill="white" stroke="#8686CE" stroke-width="3"/>
<rect x="129" y="47" width="32" height="4" rx="2" fill="#8686CE"/>
<rect x="129" y="58" width="32" height="4" rx="2" fill="#8686CE"/>
<path d="M237.443 145.5C236.677 155.569 228.265 163.5 218 163.5H60C49.7352 163.5 41.3228 155.569 40.5568 145.5H237.443Z" fill="white" stroke="#8686CE" stroke-width="3"/>
<circle cx="138.5" cy="155.5" r="4.5" fill="#D0D0FF"/>
<path opacity="0.7" d="M6.18634 257.1L9.58634 263.9V269H11.4563V263.9L14.8563 257.1H12.8673L10.5213 262.047L8.17534 257.1H6.18634ZM14.6055 264.716C14.6055 267.13 16.1695 269.136 18.8215 269.136C21.4735 269.136 23.0375 267.13 23.0375 264.716C23.0375 262.302 21.4735 260.296 18.8215 260.296C16.1695 260.296 14.6055 262.302 14.6055 264.716ZM16.4755 264.716C16.4755 263.271 17.2745 261.86 18.8215 261.86C20.3685 261.86 21.1675 263.271 21.1675 264.716C21.1675 266.161 20.3685 267.572 18.8215 267.572C17.2745 267.572 16.4755 266.161 16.4755 264.716ZM32.0318 269V260.432H30.2638V263.9C30.2638 266.263 29.1758 267.572 28.0708 267.572C27.2718 267.572 26.7448 267.164 26.7448 266.008V260.432H24.9768V266.569C24.9768 268.235 25.9968 269.136 27.4928 269.136C28.6318 269.136 29.6518 268.558 30.2638 267.538V269H32.0318ZM39.4759 257.1V269H42.9779C45.8339 269 48.4519 267.062 48.4519 263.05C48.4519 259.038 45.8339 257.1 42.9779 257.1H39.4759ZM42.4339 258.868C44.5079 258.868 46.5479 259.803 46.5479 263.05C46.5479 266.297 44.5079 267.232 42.4339 267.232H41.3459V258.868H42.4339ZM50.2158 264.716C50.2158 267.13 51.7798 269.136 54.4318 269.136C57.0838 269.136 58.6478 267.13 58.6478 264.716C58.6478 262.302 57.0838 260.296 54.4318 260.296C51.7798 260.296 50.2158 262.302 50.2158 264.716ZM52.0858 264.716C52.0858 263.271 52.8848 261.86 54.4318 261.86C55.9788 261.86 56.7778 263.271 56.7778 264.716C56.7778 266.161 55.9788 267.572 54.4318 267.572C52.8848 267.572 52.0858 266.161 52.0858 264.716ZM60.6065 260.432V269H62.3745V265.532C62.3745 263.169 63.4625 261.86 64.5675 261.86C65.3665 261.86 65.8935 262.268 65.8935 263.424V269H67.6615V262.863C67.6615 261.197 66.6415 260.296 65.1455 260.296C64.0065 260.296 62.9865 260.874 62.3745 261.894V260.432H60.6065ZM68.9582 260.738H70.2842L72.6472 256.964H70.2162L68.9582 260.738ZM73.0318 261.996H74.4598V266.076C74.4598 268.184 75.6498 269.136 77.2648 269.136C77.7408 269.136 78.1828 269.051 78.6418 268.83L78.1828 267.334C77.8768 267.521 77.6728 267.572 77.3668 267.572C76.5848 267.572 76.2278 267.147 76.2278 266.178V261.996H78.4548V260.432H76.2278V256.964L74.4598 258.069V260.432H73.0318V261.996ZM85.1966 269H87.0666V263.526H91.8946V269H93.7646V257.1H91.8946V261.758H87.0666V257.1H85.1966V269ZM95.8847 266.535C95.8847 268.32 97.0917 269.136 98.5197 269.136C99.7267 269.136 100.611 268.66 101.172 267.878L101.342 269H102.838V263.679C102.838 261.163 101.41 260.296 99.4207 260.296C97.7717 260.296 96.5477 261.214 96.1907 262.659L97.8057 262.999C98.0947 262.234 98.7067 261.86 99.4037 261.86C100.305 261.86 101.07 262.285 101.07 263.356V263.73H99.5907C97.3977 263.73 95.8847 264.767 95.8847 266.535ZM97.7547 266.535C97.7547 265.719 98.4347 265.209 99.5227 265.209H101.07V265.396C101.07 266.875 99.9137 267.572 98.8257 267.572C98.0777 267.572 97.7547 267.113 97.7547 266.535ZM103.874 260.432L106.713 269H108.379L111.218 260.432H109.416L107.546 266.586L105.676 260.432H103.874ZM115.869 261.86C117.144 261.86 117.79 262.778 117.943 263.73H113.778C113.965 262.659 114.696 261.86 115.869 261.86ZM119.813 264.444C119.813 262.523 118.606 260.296 115.869 260.296C113.047 260.296 111.874 262.676 111.874 264.716C111.874 266.756 113.047 269.136 115.869 269.136C117.824 269.136 118.793 268.337 119.626 266.722L118.113 266.127C117.671 267.062 116.787 267.572 115.869 267.572C114.475 267.572 113.744 266.467 113.744 265.209H119.813V264.444ZM125.668 266.535C125.668 268.32 126.875 269.136 128.303 269.136C129.51 269.136 130.394 268.66 130.955 267.878L131.125 269H132.621V263.679C132.621 261.163 131.193 260.296 129.204 260.296C127.555 260.296 126.331 261.214 125.974 262.659L127.589 262.999C127.878 262.234 128.49 261.86 129.187 261.86C130.088 261.86 130.853 262.285 130.853 263.356V263.73H129.374C127.181 263.73 125.668 264.767 125.668 266.535ZM127.538 266.535C127.538 265.719 128.218 265.209 129.306 265.209H130.853V265.396C130.853 266.875 129.697 267.572 128.609 267.572C127.861 267.572 127.538 267.113 127.538 266.535ZM134.948 260.432V269H136.716V265.532C136.716 263.169 137.804 261.86 138.909 261.86C139.708 261.86 140.235 262.268 140.235 263.424V269H142.003V262.863C142.003 261.197 140.983 260.296 139.487 260.296C138.348 260.296 137.328 260.874 136.716 261.894V260.432H134.948ZM143.102 260.432L146.111 268.575L144.717 272.468H146.485L150.82 260.432H148.95L146.995 266.195L144.972 260.432H143.102ZM165.738 260.432L164.089 266.688L162.576 260.432H160.876L159.363 266.688L157.714 260.432H155.844L158.564 269H160.179L161.726 262.948L163.273 269H164.888L167.608 260.432H165.738ZM168.353 264.716C168.353 267.13 169.917 269.136 172.569 269.136C175.221 269.136 176.785 267.13 176.785 264.716C176.785 262.302 175.221 260.296 172.569 260.296C169.917 260.296 168.353 262.302 168.353 264.716ZM170.223 264.716C170.223 263.271 171.022 261.86 172.569 261.86C174.116 261.86 174.915 263.271 174.915 264.716C174.915 266.161 174.116 267.572 172.569 267.572C171.022 267.572 170.223 266.161 170.223 264.716ZM180.428 269V265.821C180.428 263.118 181.601 261.86 182.74 261.86C183.097 261.86 183.471 261.945 183.743 262.115L184.049 260.5C183.794 260.398 183.42 260.296 182.961 260.296C182.043 260.296 181.023 260.84 180.428 261.86V260.432H178.66V269H180.428ZM185.533 256.964V269H187.301V264.903L190.616 269H192.86L189.052 264.376L192.639 260.432H190.395L187.301 263.849V256.964H185.533ZM196.682 260.296C195.135 260.296 194.047 261.401 194.047 262.727C194.047 264.036 194.897 264.665 195.883 265.073C196.886 265.498 197.923 265.702 197.923 266.45C197.923 267.232 197.447 267.572 196.767 267.572C195.815 267.572 195.22 266.79 194.88 266.025L193.384 266.841C193.826 267.912 194.931 269.136 196.699 269.136C198.535 269.136 199.674 267.895 199.674 266.416C199.674 264.886 198.433 264.376 197.277 263.934C196.393 263.594 195.747 263.322 195.747 262.71C195.747 262.149 196.155 261.86 196.597 261.86C197.141 261.86 197.668 262.098 198.093 262.642L199.215 261.656C198.671 260.806 197.719 260.296 196.682 260.296ZM209.426 264.716C209.426 261.979 208.134 260.296 205.601 260.296C204.479 260.296 203.561 260.925 203.272 261.418V260.432H201.504V272.468H203.272V268.048C203.663 268.609 204.513 269.136 205.567 269.136C208.134 269.136 209.426 267.368 209.426 264.716ZM207.556 264.716C207.556 266.484 206.638 267.572 205.363 267.572C204.088 267.572 203.17 266.484 203.17 264.716C203.17 262.948 204.088 261.86 205.363 261.86C206.638 261.86 207.556 262.948 207.556 264.716ZM210.917 266.535C210.917 268.32 212.124 269.136 213.552 269.136C214.759 269.136 215.643 268.66 216.204 267.878L216.374 269H217.87V263.679C217.87 261.163 216.442 260.296 214.453 260.296C212.804 260.296 211.58 261.214 211.223 262.659L212.838 262.999C213.127 262.234 213.739 261.86 214.436 261.86C215.337 261.86 216.102 262.285 216.102 263.356V263.73H214.623C212.43 263.73 210.917 264.767 210.917 266.535ZM212.787 266.535C212.787 265.719 213.467 265.209 214.555 265.209H216.102V265.396C216.102 266.875 214.946 267.572 213.858 267.572C213.11 267.572 212.787 267.113 212.787 266.535ZM226.054 266.093C225.646 267.011 224.949 267.572 223.929 267.572C222.416 267.572 221.77 266.331 221.77 264.716C221.77 263.101 222.416 261.86 223.929 261.86C224.949 261.86 225.646 262.421 226.054 263.339L227.635 262.659C226.955 261.112 225.748 260.296 223.929 260.296C221.209 260.296 219.9 262.37 219.9 264.716C219.9 267.062 221.209 269.136 223.929 269.136C225.748 269.136 226.955 268.32 227.635 266.773L226.054 266.093ZM233.059 261.86C234.334 261.86 234.98 262.778 235.133 263.73H230.968C231.155 262.659 231.886 261.86 233.059 261.86ZM237.003 264.444C237.003 262.523 235.796 260.296 233.059 260.296C230.237 260.296 229.064 262.676 229.064 264.716C229.064 266.756 230.237 269.136 233.059 269.136C235.014 269.136 235.983 268.337 236.816 266.722L235.303 266.127C234.861 267.062 233.977 267.572 233.059 267.572C231.665 267.572 230.934 266.467 230.934 265.209H237.003V264.444ZM242.246 260.432L245.255 268.575L243.861 272.468H245.629L249.964 260.432H248.094L246.139 266.195L244.116 260.432H242.246ZM254.509 261.86C255.784 261.86 256.43 262.778 256.583 263.73H252.418C252.605 262.659 253.336 261.86 254.509 261.86ZM258.453 264.444C258.453 262.523 257.246 260.296 254.509 260.296C251.687 260.296 250.514 262.676 250.514 264.716C250.514 266.756 251.687 269.136 254.509 269.136C256.464 269.136 257.433 268.337 258.266 266.722L256.753 266.127C256.311 267.062 255.427 267.572 254.509 267.572C253.115 267.572 252.384 266.467 252.384 265.209H258.453V264.444ZM259.534 261.996H260.962V266.076C260.962 268.184 262.152 269.136 263.767 269.136C264.243 269.136 264.685 269.051 265.144 268.83L264.685 267.334C264.379 267.521 264.175 267.572 263.869 267.572C263.087 267.572 262.73 267.147 262.73 266.178V261.996H264.957V260.432H262.73V256.964L260.962 258.069V260.432H259.534V261.996ZM268.139 266.569C267.442 266.569 266.881 267.113 266.881 267.827C266.881 268.541 267.442 269.085 268.139 269.085C268.836 269.085 269.397 268.541 269.397 267.827C269.397 267.113 268.836 266.569 268.139 266.569Z" fill="#1E2432"/>
</svg>
