<svg width="16" height="16" viewBox="0 0 16 16" fill="none" xmlns="http://www.w3.org/2000/svg">
<g clip-path="url(#clip0_747_2020)">
<path d="M15.3333 2.16666V6.16666H11.3333" stroke="#1E2432" stroke-width="1.3" stroke-linecap="round" stroke-linejoin="round"/>
<path d="M0.666687 12.8333V8.83334H4.66669" stroke="#1E2432" stroke-width="1.3" stroke-linecap="round" stroke-linejoin="round"/>
<path d="M2.34002 5.50001C2.67813 4.54453 3.25278 3.69028 4.01033 3.01695C4.76789 2.34363 5.68366 1.87319 6.67221 1.64952C7.66076 1.42584 8.68986 1.45624 9.66348 1.73786C10.6371 2.01948 11.5235 2.54315 12.24 3.26001L15.3334 6.16668M0.666687 8.83334L3.76002 11.74C4.47652 12.4569 5.36294 12.9805 6.33656 13.2622C7.31018 13.5438 8.33928 13.5742 9.32783 13.3505C10.3164 13.1268 11.2322 12.6564 11.9897 11.9831C12.7473 11.3097 13.3219 10.4555 13.66 9.50001" stroke="#1E2432" stroke-width="1.3" stroke-linecap="round" stroke-linejoin="round"/>
</g>
<defs>
<clipPath id="clip0_747_2020">
<rect width="16" height="16" fill="white"/>
</clipPath>
</defs>
</svg>
