<svg width="24" height="24" viewBox="0 0 24 24" fill="none" xmlns="http://www.w3.org/2000/svg">
<path d="M17.5435 11.4561C19.7526 11.4561 21.5435 9.66522 21.5435 7.45609C21.5435 5.24695 19.7526 3.45609 17.5435 3.45609C15.3343 3.45609 13.5435 5.24695 13.5435 7.45609C13.5435 9.66522 15.3343 11.4561 17.5435 11.4561Z" stroke="#666666" stroke-width="2" stroke-linecap="round" stroke-linejoin="round"/>
<path d="M2.54346 7.45609H13.5435" stroke="#666666" stroke-width="2" stroke-linecap="round" stroke-linejoin="round"/>
<path d="M6.54346 20.4561C4.33432 20.4561 2.54346 18.6652 2.54346 16.4561C2.54346 14.2469 4.33432 12.4561 6.54346 12.4561C8.7526 12.4561 10.5435 14.2469 10.5435 16.4561C10.5435 18.6652 8.7526 20.4561 6.54346 20.4561Z" stroke="#666666" stroke-width="2" stroke-linecap="round" stroke-linejoin="round"/>
<path d="M21.5435 16.4561H10.5435" stroke="#666666" stroke-width="2" stroke-linecap="round" stroke-linejoin="round"/>
</svg>
