<svg width="106" height="59" viewBox="0 0 106 59" fill="none" xmlns="http://www.w3.org/2000/svg">
<path d="M53.8716 29.8165C53.8716 30.5655 53.7873 31.286 53.6158 31.9821C53.4414 32.6745 53.1943 33.3284 52.8718 33.9347C52.5464 34.5442 52.1511 35.1021 51.6906 35.6073C51.2257 36.1136 50.7041 36.5465 50.1229 36.9083C49.5475 37.2702 48.9169 37.5512 48.237 37.7525C47.5513 37.9539 46.835 38.0547 46.0693 38.0547C45.3311 38.0547 44.6279 37.9604 43.9567 37.7723C43.2897 37.5818 42.6635 37.3167 42.0809 36.976C41.4998 36.6348 40.9725 36.2234 40.5002 35.7434C40.0264 35.2624 39.6253 34.7275 39.2927 34.1399C38.9601 33.5507 38.7043 32.9216 38.5169 32.2469C38.3339 31.5719 38.241 30.8693 38.241 30.1378C38.241 29.4229 38.3267 28.7225 38.4994 28.0345C38.6723 27.3481 38.918 26.7014 39.2434 26.0934C39.5688 25.4845 39.9611 24.9245 40.4188 24.4159C40.8779 23.9075 41.3935 23.4658 41.9631 23.096C42.5356 22.7262 43.1516 22.4392 43.8173 22.2329C44.4811 22.0274 45.1829 21.9235 45.9209 21.9235C47.1125 21.9235 48.1979 22.1101 49.1785 22.4805C50.1578 22.8497 50.9948 23.3784 51.6906 24.0644C52.3836 24.7509 52.9214 25.5804 53.3005 26.5545C53.6826 27.5297 53.8716 28.6165 53.8716 29.8165ZM48.4085 30.1378C48.4085 29.7853 48.3562 29.441 48.2543 29.1076C48.1527 28.775 48.0017 28.4792 47.8069 28.2206C47.6078 27.9614 47.3637 27.7514 47.0717 27.5924C46.781 27.431 46.4469 27.3511 46.0691 27.3511C45.6825 27.3511 45.3368 27.4201 45.0346 27.5604C44.7323 27.7012 44.4724 27.8921 44.2529 28.1335C44.0379 28.3768 43.8722 28.6609 43.756 28.9841C43.6398 29.3097 43.5845 29.6525 43.5845 30.0143C43.5845 30.3598 43.6311 30.706 43.7327 31.0501C43.8286 31.3952 43.977 31.709 44.1715 31.9881C44.3721 32.2678 44.6147 32.4929 44.9068 32.6658C45.1976 32.8387 45.5374 32.9253 45.9209 32.9253C46.3104 32.9253 46.6548 32.8488 46.9641 32.6964C47.2695 32.5447 47.5308 32.3404 47.7429 32.0804C47.9581 31.8204 48.1209 31.5241 48.237 31.186C48.3533 30.8483 48.4085 30.5001 48.4085 30.1378Z" fill="black"/>
<path d="M69.878 33.0237C69.878 33.9523 69.8636 34.8712 69.846 35.7786C69.8272 36.6881 69.7967 37.6025 69.7545 38.523L62.6642 38.3994C62.9096 36.9445 63.1217 35.4923 63.3019 34.04C63.4879 32.5897 63.5751 31.1238 63.5751 29.6441C63.5751 29.5372 63.5707 29.3643 63.5592 29.1269C63.5562 28.8878 63.5358 28.6196 63.5142 28.3191C63.491 28.0191 63.4561 27.7096 63.4096 27.3929C63.3631 27.077 63.3005 26.7877 63.2208 26.5233C63.1466 26.2602 63.0535 26.0451 62.9418 25.8774C62.8299 25.7088 62.6963 25.6238 62.5408 25.6238C62.2618 25.6238 62.0237 25.7053 61.8331 25.8701C61.6414 26.035 61.4832 26.2467 61.3536 26.5067C61.2257 26.7645 61.1241 27.0545 61.0501 27.3748C60.9789 27.6953 60.9208 28.0156 60.8861 28.339C60.8483 28.6585 60.8234 28.9608 60.8105 29.2441C60.8003 29.5282 60.7916 29.7591 60.7916 29.9416C60.751 31.3953 60.7189 32.8415 60.6943 34.2758C60.6696 35.7104 60.6377 37.1592 60.597 38.623L54.3203 38.8933C54.4831 35.9925 54.6428 33.107 54.7909 30.2374C54.9436 27.3671 55.0641 24.4807 55.1571 21.5808L60.9646 21.2843L60.9152 23.2559C61.1464 22.9784 61.3933 22.714 61.6621 22.4678C61.928 22.2215 62.2127 22.0084 62.5165 21.8335C62.8184 21.6556 63.1441 21.5159 63.4825 21.412C63.8226 21.3112 64.1815 21.2581 64.5606 21.2581C65.2579 21.2581 65.8682 21.3744 66.3942 21.6037C66.9173 21.8349 67.3691 22.1465 67.7483 22.5417C68.126 22.9364 68.4413 23.4027 68.6956 23.9402C68.9514 24.4793 69.1549 25.0539 69.3115 25.6619C69.4671 26.27 69.5847 26.905 69.669 27.566C69.7504 28.2286 69.8027 28.88 69.8329 29.5217C69.8606 30.1624 69.878 30.7829 69.878 31.3836C69.878 31.9849 69.878 32.53 69.878 33.0237Z" fill="black"/>
<path d="M86.161 23.3301L80.7198 29.8161L85.7194 38.2999L80.0066 39.3127L76.2622 34.2316L76.0688 39.0668L70.9473 39.2637L71.3393 21.6031L77.0756 21.9229L76.6325 27.0047L80.2039 21.8502L86.161 23.3301Z" fill="black"/>
<path d="M101.747 38.2036L95.6428 38.9926L94.9031 36.2044H92.0947L91.48 38.9926L85.2048 38.3765L90.1057 21.9502L96.9475 21.6037L101.747 38.2036ZM94.4602 32.4317L93.5261 28.1397L92.6149 32.4317H94.4602Z" fill="black"/>
<path d="M44.772 17.4494C44.772 17.4494 38.3353 6.84139 25.2036 7.74529C21.0701 7.74529 5.34188 11.6935 4.93652 29.9775C5.08177 32.034 6.06687 49.8014 26.4039 51.3025C28.3275 51.2384 36.5846 51.9272 44.0252 42.6493C42.6651 42.3376 33.5305 40.4387 33.4986 29.2198C33.5712 27.3527 34.7305 19.0362 44.772 17.4494Z" fill="#2CC4F2"/>
<path d="M30.2295 23.4953L22.1789 34.3802H29.9479L29.8435 41.8482L14.1586 42.4823L13.457 35.5786L22.6339 23.6013L14.2301 24.2354L14.1589 17.1537H29.9133L30.2295 23.4953Z" fill="white"/>
</svg>
