<svg width="76" height="34" viewBox="0 0 76 34" fill="none" xmlns="http://www.w3.org/2000/svg">
<path d="M38.3325 17.2643C38.3325 17.8456 38.2667 18.4049 38.1328 18.9451C37.9967 19.4824 37.8037 19.9899 37.5519 20.4606C37.2977 20.9336 36.989 21.3667 36.6293 21.7586C36.2662 22.1516 35.8589 22.4875 35.405 22.7683C34.9556 23.0493 34.4631 23.2674 33.932 23.4235C33.3964 23.5798 32.837 23.6581 32.239 23.6581C31.6626 23.6581 31.1134 23.5847 30.5891 23.4388C30.0683 23.291 29.5792 23.0852 29.1242 22.8208C28.6702 22.5558 28.2584 22.2366 27.8897 21.8641C27.5197 21.4908 27.2065 21.0757 26.9466 20.6197C26.6869 20.1624 26.4872 19.674 26.3407 19.1503C26.1978 18.6265 26.1252 18.0811 26.1252 17.5134C26.1252 16.9586 26.1921 16.4151 26.3271 15.8811C26.4622 15.3484 26.654 14.8465 26.9082 14.3746C27.1623 13.9021 27.4687 13.4674 27.8262 13.0726C28.1847 12.678 28.5875 12.3352 29.0324 12.0482C29.4796 11.7612 29.9606 11.5385 30.4803 11.3784C30.9989 11.2188 31.547 11.1382 32.1233 11.1382C33.0539 11.1382 33.9015 11.2831 34.6674 11.5706C35.4322 11.8571 36.0858 12.2675 36.6294 12.7998C37.1706 13.3326 37.5905 13.9765 37.8867 14.7326C38.1849 15.4893 38.3325 16.3328 38.3325 17.2643ZM34.066 17.5134C34.066 17.24 34.0251 16.9727 33.9456 16.714C33.8663 16.4557 33.7483 16.2262 33.5962 16.0255C33.4407 15.8241 33.2502 15.6612 33.0221 15.5379C32.7951 15.4126 32.5341 15.3505 32.2391 15.3505C31.9373 15.3505 31.6672 15.4042 31.4312 15.513C31.1951 15.6223 30.9921 15.7706 30.8207 15.9578C30.6527 16.1467 30.5234 16.3672 30.4327 16.618C30.3418 16.8707 30.2987 17.1368 30.2987 17.4176C30.2987 17.6859 30.335 17.9544 30.4145 18.2215C30.4894 18.4894 30.6052 18.733 30.7571 18.9495C30.9138 19.1665 31.1032 19.3414 31.3313 19.4756C31.5583 19.6097 31.8238 19.677 32.1233 19.677C32.4274 19.677 32.6963 19.6176 32.938 19.4992C33.1764 19.3815 33.3806 19.2229 33.5463 19.0211C33.7142 18.8192 33.8414 18.5891 33.9321 18.327C34.0229 18.0649 34.066 17.7948 34.066 17.5134Z" fill="black"/>
<path d="M50.8325 19.7534C50.8325 20.4741 50.8212 21.1874 50.8076 21.8916C50.7928 22.5975 50.769 23.3073 50.7361 24.0217L45.1987 23.9258C45.3904 22.7967 45.5562 21.6695 45.6968 20.5425C45.8421 19.4168 45.9101 18.2791 45.9101 17.1305C45.9101 17.0477 45.9066 16.9135 45.8977 16.7291C45.8954 16.5435 45.8795 16.3354 45.8625 16.1021C45.8444 15.8692 45.8172 15.6291 45.7808 15.3832C45.7445 15.138 45.6956 14.9135 45.6333 14.7082C45.5754 14.5041 45.5028 14.3372 45.4155 14.207C45.328 14.0762 45.2237 14.0102 45.1022 14.0102C44.8844 14.0102 44.6983 14.0734 44.5496 14.2013C44.3998 14.3293 44.2762 14.4935 44.1751 14.6953C44.0753 14.8955 43.9958 15.1204 43.938 15.3691C43.8824 15.6177 43.837 15.8663 43.8098 16.1172C43.7802 16.3653 43.7609 16.5998 43.7507 16.8198C43.7427 17.0403 43.7359 17.2196 43.7359 17.3611C43.7042 18.4893 43.6793 19.6119 43.6599 20.7249C43.6406 21.8385 43.6156 22.9629 43.5839 24.0989L38.6819 24.3085C38.809 22.0572 38.9338 19.8179 39.0496 17.5905C39.1688 15.3628 39.2628 13.1226 39.3354 10.8718L43.871 10.6418L43.8324 12.172C44.0129 11.9566 44.2058 11.7514 44.4157 11.5603C44.6234 11.369 44.8457 11.2039 45.083 11.068C45.3189 10.93 45.5732 10.8216 45.8375 10.741C46.103 10.6627 46.3833 10.6215 46.6796 10.6215C47.2242 10.6215 47.7008 10.7117 48.1116 10.8898C48.5201 11.0692 48.8729 11.3111 49.1692 11.6178C49.4641 11.924 49.7103 12.2859 49.9089 12.7032C50.1087 13.1215 50.2675 13.5675 50.39 14.0395C50.5115 14.5115 50.6033 15.0043 50.6693 15.5173C50.7328 16.0315 50.7737 16.5372 50.7974 17.0352C50.8189 17.5324 50.8325 18.0139 50.8325 18.4803C50.8325 18.9471 50.8325 19.37 50.8325 19.7534Z" fill="black"/>
<path d="M63.5505 12.2302L59.3011 17.2642L63.2057 23.8486L58.7439 24.6348L55.8197 20.6912L55.6688 24.444L51.6689 24.5968L51.9752 10.8899L56.4551 11.1381L56.1091 15.0821L58.8981 11.0817L63.5505 12.2302Z" fill="black"/>
<path d="M75.7205 23.7736L70.9537 24.386L70.376 22.222H68.1827L67.7027 24.386L62.8017 23.9078L66.6292 11.1589L71.9726 10.8899L75.7205 23.7736ZM70.0299 19.2941L69.3004 15.9628L68.5889 19.2941H70.0299Z" fill="black"/>
<path d="M31.227 7.66604C31.227 7.66604 26.2001 -0.567158 15.9443 0.134328C12.7161 0.134328 0.432734 3.1987 0.116089 17.3895C0.229551 18.9857 0.998879 32.7755 16.8817 33.9404C18.384 33.8908 24.8327 34.4254 30.6436 27.2245C29.5815 26.9825 22.4475 25.5087 22.4225 16.8014C22.4793 15.3523 23.3848 8.8975 31.227 7.66604Z" fill="#2CC4F2"/>
<path d="M19.8693 12.3583L13.5819 20.8063H19.6493L19.5676 26.6026L7.31811 27.0948L6.77014 21.7365L13.937 12.4407L7.37381 12.9328L7.31811 7.43652H19.6221L19.8693 12.3583Z" fill="white"/>
</svg>
