<?xml version="1.0" encoding="UTF-8"?>
<svg version="1.1" xmlns="http://www.w3.org/2000/svg" width="512" height="512">
<path d="M0 0 C1.01790619 0.00215515 2.03581238 0.0043103 3.08456421 0.00653076 C17.69363523 0.05620146 32.02575853 0.30709809 46.375 3.3125 C47.34985352 3.51117676 48.32470703 3.70985352 49.32910156 3.91455078 C97.7109774 14.03517194 141.69928269 35.9516877 177.375 70.3125 C178.3640332 71.26068604 178.3640332 71.26068604 179.37304688 72.22802734 C188.86130305 81.37247479 197.6012044 90.66984009 205.375 101.3125 C206.23306152 102.46355017 207.09113451 103.61459177 207.94921875 104.765625 C213.98677396 112.95525981 219.36957302 121.45788276 224.375 130.3125 C224.7771875 131.01971191 225.179375 131.72692383 225.59375 132.45556641 C238.6191741 155.59095836 247.36801461 180.76212409 252.6875 206.75 C252.83485596 207.46889404 252.98221191 208.18778809 253.1340332 208.9284668 C256.10789088 224.57475609 256.74800362 240.04818046 256.6875 255.9375 C256.68534485 256.95540619 256.6831897 257.97331238 256.68096924 259.02206421 C256.63129854 273.63113523 256.38040191 287.96325853 253.375 302.3125 C253.07698486 303.77478027 253.07698486 303.77478027 252.77294922 305.26660156 C242.65232806 353.6484774 220.7358123 397.63678269 186.375 433.3125 C185.74287598 433.97185547 185.11075195 434.63121094 184.45947266 435.31054688 C175.31502521 444.79880305 166.01765991 453.5387044 155.375 461.3125 C154.22394983 462.17056152 153.07290823 463.02863451 151.921875 463.88671875 C143.73224019 469.92427396 135.22961724 475.30707302 126.375 480.3125 C125.66778809 480.7146875 124.96057617 481.116875 124.23193359 481.53125 C101.09654164 494.5566741 75.92537591 503.30551461 49.9375 508.625 C49.21860596 508.77235596 48.49971191 508.91971191 47.7590332 509.0715332 C32.11274391 512.04539088 16.63931954 512.68550362 0.75 512.625 C-0.77685928 512.62176727 -0.77685928 512.62176727 -2.33456421 512.61846924 C-16.94363523 512.56879854 -31.27575853 512.31790191 -45.625 509.3125 C-47.08728027 509.01448486 -47.08728027 509.01448486 -48.57910156 508.71044922 C-96.9609774 498.58982806 -140.94928269 476.6733123 -176.625 442.3125 C-177.28435547 441.68037598 -177.94371094 441.04825195 -178.62304688 440.39697266 C-188.11130305 431.25252521 -196.8512044 421.95515991 -204.625 411.3125 C-205.48306152 410.16144983 -206.34113451 409.01040823 -207.19921875 407.859375 C-213.23677396 399.66974019 -218.61957302 391.16711724 -223.625 382.3125 C-224.0271875 381.60528809 -224.429375 380.89807617 -224.84375 380.16943359 C-237.8691741 357.03404164 -246.61801461 331.86287591 -251.9375 305.875 C-252.08485596 305.15610596 -252.23221191 304.43721191 -252.3840332 303.6965332 C-255.35789088 288.05024391 -255.99800362 272.57681954 -255.9375 256.6875 C-255.93534485 255.66959381 -255.9331897 254.65168762 -255.93096924 253.60293579 C-255.88129854 238.99386477 -255.63040191 224.66174147 -252.625 210.3125 C-252.42632324 209.33764648 -252.22764648 208.36279297 -252.02294922 207.35839844 C-241.90232806 158.9765226 -219.9858123 114.98821731 -185.625 79.3125 C-184.99287598 78.65314453 -184.36075195 77.99378906 -183.70947266 77.31445312 C-174.56502521 67.82619695 -165.26765991 59.0862956 -154.625 51.3125 C-153.47394983 50.45443848 -152.32290823 49.59636549 -151.171875 48.73828125 C-142.98224019 42.70072604 -134.47961724 37.31792698 -125.625 32.3125 C-124.91778809 31.9103125 -124.21057617 31.508125 -123.48193359 31.09375 C-100.34654164 18.0683259 -75.17537591 9.31948539 -49.1875 4 C-48.46860596 3.85264404 -47.74971191 3.70528809 -47.0090332 3.5534668 C-31.36274391 0.57960912 -15.88931954 -0.06050362 0 0 Z " fill="#FED83B" transform="translate(255.625,-0.3125)"/>
<path d="M0 0 C16.84995116 7.55603191 32.31965424 28.32624484 43 43 C43.85649066 44.14994831 44.71326433 45.29968589 45.5703125 46.44921875 C51.61034209 54.63934258 56.99367614 63.14379618 62 72 C62.4021875 72.70721191 62.804375 73.41442383 63.21875 74.14306641 C76.2441741 97.27845836 84.99301461 122.44962409 90.3125 148.4375 C90.45985596 149.15639404 90.60721191 149.87528809 90.7590332 150.6159668 C93.73289088 166.26225609 94.37300362 181.73568046 94.3125 197.625 C94.31034485 198.64290619 94.3081897 199.66081238 94.30596924 200.70956421 C94.25629854 215.31863523 94.00540191 229.65075853 91 244 C90.70198486 245.46228027 90.70198486 245.46228027 90.39794922 246.95410156 C80.27732806 295.3359774 58.3608123 339.32428269 24 375 C23.36787598 375.65935547 22.73575195 376.31871094 22.08447266 376.99804688 C12.94002521 386.48630305 3.64265991 395.2262044 -7 403 C-8.15105017 403.85806152 -9.30209177 404.71613451 -10.453125 405.57421875 C-18.64275981 411.61177396 -27.14538276 416.99457302 -36 422 C-36.70721191 422.4021875 -37.41442383 422.804375 -38.14306641 423.21875 C-61.27845836 436.2441741 -86.44962409 444.99301461 -112.4375 450.3125 C-113.15639404 450.45985596 -113.87528809 450.60721191 -114.6159668 450.7590332 C-130.26225609 453.73289088 -145.73568046 454.37300362 -161.625 454.3125 C-162.64290619 454.31034485 -163.66081238 454.3081897 -164.70956421 454.30596924 C-179.31863523 454.25629854 -193.65075853 454.00540191 -208 451 C-209.46228027 450.70198486 -209.46228027 450.70198486 -210.95410156 450.39794922 C-264.61968822 439.17207047 -309.30087656 413.61389536 -347.9375 375.1875 C-349.02091675 374.11121338 -349.02091675 374.11121338 -350.1262207 373.01318359 C-353.96962253 369.1576518 -357.59309701 365.24696126 -361 361 C-360.67 360.34 -360.34 359.68 -360 359 C-359.47535156 359.44988281 -358.95070313 359.89976562 -358.41015625 360.36328125 C-327.79762883 385.78033813 -289.61647829 401.72417297 -251 410 C-250.02933594 410.21317871 -249.05867188 410.42635742 -248.05859375 410.64599609 C-216.84146897 417.19805907 -181.12456513 416.79336971 -150 410 C-149.00178223 409.79101074 -148.00356445 409.58202148 -146.97509766 409.36669922 C-95.67810421 398.40088877 -52.3429341 372.26686674 -15.4375 335.5625 C-14.84155029 334.97122314 -14.24560059 334.37994629 -13.6315918 333.77075195 C-11.32952198 331.46007627 -9.22752123 329.34044332 -7.41015625 326.62109375 C-6 325 -6 325 -3.6875 324.53125 C-2.800625 324.5209375 -1.91375 324.510625 -1 324.5 C7.8665265 323.96121503 15.67695789 321.38755015 22.2109375 315.203125 C28.95874789 306.8935943 31.98931591 297.5484203 31 287 C29.90490668 282.57658811 28.52827169 278.29144148 27 274 C27.66 274 28.32 274 29 274 C29.37125 272.80375 29.7425 271.6075 30.125 270.375 C31.4273545 266.44370665 32.99098956 262.71420035 34.6875 258.9375 C42.18678096 241.60707211 47.44484588 223.52331752 51 205 C51.24556641 203.81059814 51.24556641 203.81059814 51.49609375 202.59716797 C64.17779617 139.51617916 46.9051564 69.91983591 11.73046875 16.98046875 C8.51441453 12.23263256 5.0964968 7.65502915 1.58203125 3.125 C0 1 0 1 0 0 Z " fill="#F4C534" transform="translate(418,58)"/>
<path d="M0 0 C1.2897876 -0.01023193 2.5795752 -0.02046387 3.90844727 -0.03100586 C28.84260292 0.19536607 50.02520816 9.13604643 69.4375 24.4375 C70.0459375 24.9015625 70.654375 25.365625 71.28125 25.84375 C90.22336677 40.75562916 102.53979023 66.20286359 106.1875 89.625 C106.27 90.883125 106.3525 92.14125 106.4375 93.4375 C106.53224609 94.85482422 106.53224609 94.85482422 106.62890625 96.30078125 C106.88442452 102.9195288 106.50586559 108.04222133 102.4375 113.4375 C98.11296361 118.07008556 93.89140924 120.19613188 87.625 120.8125 C82.64483911 120.69838829 78.07053831 119.42050706 73.27685547 118.14648438 C67.31228755 116.58992062 61.31890774 115.38826301 55.25 114.3125 C54.39196777 114.15426758 53.53393555 113.99603516 52.64990234 113.83300781 C35.91210715 110.93765757 18.96242707 109.99745752 2 110 C0.6324205 109.99790024 0.6324205 109.99790024 -0.76278687 109.99575806 C-25.32582154 110.02630612 -50.08691727 112.63044292 -73.88598633 118.9128418 C-79.88976454 120.48214745 -86.06928783 121.72620465 -92.05078125 119.51953125 C-97.17812058 115.95125441 -101.0782886 112.29769099 -103.5625 106.4375 C-106.37835517 81.63312875 -94.47195315 56.43106078 -79.5625 37.4375 C-78.96695313 36.66921875 -78.37140625 35.9009375 -77.7578125 35.109375 C-65.97770839 20.79288483 -48.74278381 10.82837786 -31.5625 4.4375 C-30.41394531 4.00179688 -29.26539063 3.56609375 -28.08203125 3.1171875 C-18.84523868 0.23635579 -9.61262284 0.04797075 0 0 Z " fill="#3E4346" transform="translate(254.5625,284.5625)"/>
<path d="M0 0 C0.66 0 1.32 0 2 0 C5.37346334 5.978195 8.70022897 11.98082505 12 18 C12.74564209 19.35593262 12.74564209 19.35593262 13.50634766 20.73925781 C37.7737431 65.13942954 37.7737431 65.13942954 33.1640625 82.0703125 C29.9234378 90.57423369 25.13094003 98.12799402 16.875 102.4375 C15.6022034 103.0028839 14.30748505 103.52025739 13 104 C12.05898438 104.35449219 11.11796875 104.70898438 10.1484375 105.07421875 C2.33508292 107.37169398 -6.19243751 106.88105506 -13.5859375 103.44921875 C-22.5321117 98.07861903 -28.57100918 91.05402219 -31.59375 81.03125 C-36.08444815 58.57775924 -18.41756242 33.28669921 -8.5 14.3125 C-8.10329102 13.55340332 -7.70658203 12.79430664 -7.29785156 12.01220703 C-5.0816122 7.84040658 -2.82134433 3.79566451 0 0 Z " fill="#66B1ED" transform="translate(416,277)"/>
<path d="M0 0 C26.7910037 17.28035858 40.40096361 45.40118897 53.49609375 73.34375 C54.03427734 74.48513428 54.57246094 75.62651855 55.12695312 76.80249023 C55.85881836 78.39105835 55.85881836 78.39105835 56.60546875 80.01171875 C57.04342773 80.95684326 57.48138672 81.90196777 57.93261719 82.87573242 C58.20106445 83.62830322 58.46951172 84.38087402 58.74609375 85.15625 C58.41609375 85.81625 58.08609375 86.47625 57.74609375 87.15625 C53.2342732 82.74990058 48.90605065 78.26474119 44.7890625 73.48828125 C40.66581109 68.78162525 36.40100585 64.20496796 32.12402344 59.63818359 C30.97593664 58.40344106 29.84682801 57.15108617 28.72265625 55.89453125 C18.11772784 44.47918255 3.98686143 37.84725695 -10.25390625 32.15625 C-11.37152344 31.68445313 -12.48914063 31.21265625 -13.640625 30.7265625 C-32.932081 23.37526211 -55.78266541 21.42400701 -76.25390625 21.15625 C-68.43515116 11.80235112 -59.94664476 4.13291244 -49.25390625 -1.84375 C-48.37605469 -2.35292969 -47.49820312 -2.86210937 -46.59375 -3.38671875 C-31.69867357 -10.86568118 -13.98943783 -7.9267883 0 0 Z " fill="#404446" transform="translate(360.25390625,181.84375)"/>
<path d="M0 0 C7.21515469 4.82734364 13.43064625 10.39937039 19.34375 16.7578125 C20.67244569 18.0957674 22.00447763 19.43044477 23.34375 20.7578125 C22.75174805 20.77239502 22.15974609 20.78697754 21.54980469 20.80200195 C-18.63160497 21.89750667 -58.07142601 30.08926477 -87.07421875 60.04296875 C-89.24314213 62.39397459 -91.33167845 64.80948421 -93.421875 67.23046875 C-96.5503215 70.76911365 -99.75494412 74.23422811 -102.96875 77.6953125 C-103.59209229 78.37078125 -104.21543457 79.04625 -104.85766602 79.7421875 C-105.44733154 80.37511719 -106.03699707 81.00804687 -106.64453125 81.66015625 C-107.17602783 82.23241943 -107.70752441 82.80468262 -108.25512695 83.39428711 C-109.65625 84.7578125 -109.65625 84.7578125 -111.65625 85.7578125 C-109.17390788 77.58120888 -105.71038471 69.91888006 -102.09375 62.1953125 C-101.62646988 61.19528198 -101.62646988 61.19528198 -101.14974976 60.17504883 C-88.2662738 32.71866348 -70.35322267 4.86319126 -40.65625 -6.2421875 C-27.04487683 -10.10807731 -11.77970718 -7.45259487 0 0 Z " fill="#404446" transform="translate(203.65625,182.2421875)"/>
<path d="M0 0 C6.09039633 4.87231706 11.20624213 10.48273448 16.41845703 16.25683594 C31.98216736 33.44128856 31.98216736 33.44128856 48.94140625 49.21484375 C51.33418855 51.28979918 53.62620432 53.45968088 55.9375 55.625 C67.68487395 66.32205853 80.86159852 75.42852525 93.66015625 84.80859375 C94.37703613 85.33694824 95.09391602 85.86530273 95.83251953 86.40966797 C97.32697078 87.50618243 98.8284142 88.593209 100.33544922 89.67236328 C101.06908691 90.20458496 101.80272461 90.73680664 102.55859375 91.28515625 C103.22044678 91.75961182 103.8822998 92.23406738 104.56420898 92.72290039 C105.03802002 93.14434326 105.51183105 93.56578613 106 94 C106 94.66 106 95.32 106 96 C80.57480051 97.5435197 55.87128693 84.1239017 37 68 C21.60465454 54.11116958 10.21027648 37.45097841 3 18 C2.6390625 17.02804688 2.278125 16.05609375 1.90625 15.0546875 C0.95625774 11.85255843 0.59686171 8.95292571 0.375 5.625 C0.30023438 4.56539062 0.22546875 3.50578125 0.1484375 2.4140625 C0.09945313 1.61742187 0.05046875 0.82078125 0 0 Z " fill="#404546" transform="translate(276,48)"/>
<path d="M0 0 C0.33 0 0.66 0 1 0 C1.79760367 22.53230367 -13.0744221 43.80436873 -27.70703125 59.5703125 C-28.46371094 60.37210938 -29.22039062 61.17390625 -30 62 C-30.74636719 62.82242188 -31.49273437 63.64484375 -32.26171875 64.4921875 C-48.08569561 81.28391171 -73.78522963 95.221543 -97.14453125 96.12109375 C-99.7666029 96.1244597 -102.37966748 96.09123015 -105 96 C-101.58617672 91.09716869 -97.32835064 88.11989576 -92.5 84.75 C-90.8731577 83.59451021 -89.24685638 82.43825839 -87.62109375 81.28125 C-86.43362549 80.44013672 -86.43362549 80.44013672 -85.22216797 79.58203125 C-73.51145021 71.24480305 -62.36108282 62.31023825 -51.80078125 52.5546875 C-50.32057022 51.20453686 -48.83519805 49.85913283 -47.31225586 48.55737305 C-41.43852924 43.5362964 -35.97629591 38.1285547 -30.52709961 32.6574707 C-28.94040054 31.06541034 -27.34842258 29.4787701 -25.75585938 27.89257812 C-20.29290954 22.43335748 -15.00803522 16.88338649 -10 11 C-8.22205095 8.98714291 -6.42473802 6.99355596 -4.625 5 C-3.77164063 4.05125 -2.91828125 3.1025 -2.0390625 2.125 C-1.36617188 1.42375 -0.69328125 0.7225 0 0 Z " fill="#404546" transform="translate(233,48)"/>
<path d="M0 0 C1.875 1.0625 1.875 1.0625 3 3 C3.64211047 7.76996346 3.01087121 11.1943969 0.3984375 15.2890625 C-3.05786541 19.5177236 -6.90690354 22.60507614 -12.3125 23.625 C-15 23 -15 23 -16.9375 21.5625 C-18.61639946 17.51338955 -18.34996848 14.1448781 -17 10 C-12.73892998 3.46932611 -8.13275031 -0.8651862 0 0 Z " fill="#83C0F1" transform="translate(436,348)"/>
</svg>
