<?xml version="1.0" encoding="utf-8"?>
<!-- Generator: Adobe Illustrator 24.1.0, SVG Export Plug-In . SVG Version: 6.00 Build 0)  -->
<svg version="1.1" id="Capa_1" xmlns="http://www.w3.org/2000/svg" xmlns:xlink="http://www.w3.org/1999/xlink" x="0px" y="0px"
	 viewBox="0 0 512 512" style="enable-background:new 0 0 512 512;" xml:space="preserve">
<style type="text/css">
	.st0{fill:#FFD93B;}
	.st1{fill:#F4C534;}
	.st2{fill:#3E4347;}
	.st3{fill:#65B1EF;}
	.st4{opacity:0.2;}
	.st5{fill:#FFFFFF;}
</style>
<circle class="st0" cx="256" cy="256" r="256"/>
<path class="st1" d="M512,256c0,141.4-114.6,256-256,256c-80.5,0-152.3-37.1-199.3-95.3c43.9,35.5,99.8,56.7,160.7,56.7
	c141.4,0,256-114.6,256-256c0-60.9-21.2-116.8-56.7-160.7C474.8,103.7,512,175.5,512,256z"/>
<path class="st2" d="M336.6,404.2c12.5,3.2,24.8-6.2,24.3-19c-2.1-54.9-47.4-100.8-104.9-100.8c-57.6,0-102.9,46-104.9,100.9
	c-0.5,12.8,11.8,22.2,24.2,19.1C230.4,390.3,284.1,390.6,336.6,404.2z"/>
<path class="st3" d="M449.9,350c0-18.2-33-74.3-33-74.3s-33,56.1-33,74.3s14.8,33,33,33S449.9,368.2,449.9,350z"/>
<g>
	<path class="st2" d="M420.4,271.3l-28.6-31.2c-32.9-35.7-92-36.8-92.7-36.8l-16.2-0.1l12-11.1c15.2-14.3,31.3-19.9,47.6-16.6
		c36,7,59.1,55.4,60,57.4L420.4,271.3z"/>
	<path class="st2" d="M276,47.1c65.6,73.7,85.6,77.4,108.2,97.6c-21.8,0-49.8-9.9-71.5-29.5C285.9,90,275.8,63.5,276,47.1z"/>
	<path class="st2" d="M89.9,271.3l28.6-31.2c32.9-35.7,92-36.8,92.7-36.8l16.2-0.1l-12-11.1c-15.2-14.3-31.3-19.9-47.6-16.6
		c-36,7-59.1,55.4-60,57.4L89.9,271.3z"/>
	<path class="st2" d="M234.3,47.1c-65.6,73.7-85.6,77.4-108.2,97.6c21.8,0,49.8-9.9,71.5-29.5C224.4,90,234.5,63.5,234.3,47.1z"/>
</g>
<g class="st4">
	<path class="st5" d="M434.7,364.7c-4.6,5.5-11.4,7.8-14.7,4.7c-3.5-2.9-2.4-9.7,2.4-15.3c4.6-5.6,11.2-7.8,14.7-4.7
		C440.6,352.4,439.5,359.2,434.7,364.7z"/>
</g>
</svg>
