<?xml version="1.0" encoding="UTF-8"?>
<svg version="1.1" xmlns="http://www.w3.org/2000/svg" width="512" height="512">
<path d="M0 0 C1.01790619 0.00215515 2.03581238 0.0043103 3.08456421 0.00653076 C17.69363523 0.05620146 32.02575853 0.30709809 46.375 3.3125 C47.34985352 3.51117676 48.32470703 3.70985352 49.32910156 3.91455078 C97.7109774 14.03517194 141.69928269 35.9516877 177.375 70.3125 C178.3640332 71.26068604 178.3640332 71.26068604 179.37304688 72.22802734 C188.86130305 81.37247479 197.6012044 90.66984009 205.375 101.3125 C206.23306152 102.46355017 207.09113451 103.61459177 207.94921875 104.765625 C213.98677396 112.95525981 219.36957302 121.45788276 224.375 130.3125 C224.7771875 131.01971191 225.179375 131.72692383 225.59375 132.45556641 C238.6191741 155.59095836 247.36801461 180.76212409 252.6875 206.75 C252.83485596 207.46889404 252.98221191 208.18778809 253.1340332 208.9284668 C256.10789088 224.57475609 256.74800362 240.04818046 256.6875 255.9375 C256.68534485 256.95540619 256.6831897 257.97331238 256.68096924 259.02206421 C256.63129854 273.63113523 256.38040191 287.96325853 253.375 302.3125 C253.07698486 303.77478027 253.07698486 303.77478027 252.77294922 305.26660156 C242.65232806 353.6484774 220.7358123 397.63678269 186.375 433.3125 C185.74287598 433.97185547 185.11075195 434.63121094 184.45947266 435.31054688 C175.31502521 444.79880305 166.01765991 453.5387044 155.375 461.3125 C154.22394983 462.17056152 153.07290823 463.02863451 151.921875 463.88671875 C143.73224019 469.92427396 135.22961724 475.30707302 126.375 480.3125 C125.66778809 480.7146875 124.96057617 481.116875 124.23193359 481.53125 C101.09654164 494.5566741 75.92537591 503.30551461 49.9375 508.625 C49.21860596 508.77235596 48.49971191 508.91971191 47.7590332 509.0715332 C32.11274391 512.04539088 16.63931954 512.68550362 0.75 512.625 C-0.77685928 512.62176727 -0.77685928 512.62176727 -2.33456421 512.61846924 C-16.94363523 512.56879854 -31.27575853 512.31790191 -45.625 509.3125 C-47.08728027 509.01448486 -47.08728027 509.01448486 -48.57910156 508.71044922 C-96.9609774 498.58982806 -140.94928269 476.6733123 -176.625 442.3125 C-177.28435547 441.68037598 -177.94371094 441.04825195 -178.62304688 440.39697266 C-188.11130305 431.25252521 -196.8512044 421.95515991 -204.625 411.3125 C-205.48306152 410.16144983 -206.34113451 409.01040823 -207.19921875 407.859375 C-213.23677396 399.66974019 -218.61957302 391.16711724 -223.625 382.3125 C-224.0271875 381.60528809 -224.429375 380.89807617 -224.84375 380.16943359 C-237.8691741 357.03404164 -246.61801461 331.86287591 -251.9375 305.875 C-252.08485596 305.15610596 -252.23221191 304.43721191 -252.3840332 303.6965332 C-255.35789088 288.05024391 -255.99800362 272.57681954 -255.9375 256.6875 C-255.93534485 255.66959381 -255.9331897 254.65168762 -255.93096924 253.60293579 C-255.88129854 238.99386477 -255.63040191 224.66174147 -252.625 210.3125 C-252.42632324 209.33764648 -252.22764648 208.36279297 -252.02294922 207.35839844 C-241.90232806 158.9765226 -219.9858123 114.98821731 -185.625 79.3125 C-184.99287598 78.65314453 -184.36075195 77.99378906 -183.70947266 77.31445312 C-174.56502521 67.82619695 -165.26765991 59.0862956 -154.625 51.3125 C-153.47394983 50.45443848 -152.32290823 49.59636549 -151.171875 48.73828125 C-142.98224019 42.70072604 -134.47961724 37.31792698 -125.625 32.3125 C-124.91778809 31.9103125 -124.21057617 31.508125 -123.48193359 31.09375 C-100.34654164 18.0683259 -75.17537591 9.31948539 -49.1875 4 C-48.46860596 3.85264404 -47.74971191 3.70528809 -47.0090332 3.5534668 C-31.36274391 0.57960912 -15.88931954 -0.06050362 0 0 Z " fill="#FED83B" transform="translate(255.625,-0.3125)"/>
<path d="M0 0 C16.84995116 7.55603191 32.31965424 28.32624484 43 43 C43.85649066 44.14994831 44.71326433 45.29968589 45.5703125 46.44921875 C51.61034209 54.63934258 56.99367614 63.14379618 62 72 C62.4021875 72.70721191 62.804375 73.41442383 63.21875 74.14306641 C76.2441741 97.27845836 84.99301461 122.44962409 90.3125 148.4375 C90.45985596 149.15639404 90.60721191 149.87528809 90.7590332 150.6159668 C93.73289088 166.26225609 94.37300362 181.73568046 94.3125 197.625 C94.31034485 198.64290619 94.3081897 199.66081238 94.30596924 200.70956421 C94.25629854 215.31863523 94.00540191 229.65075853 91 244 C90.70198486 245.46228027 90.70198486 245.46228027 90.39794922 246.95410156 C80.27732806 295.3359774 58.3608123 339.32428269 24 375 C23.36787598 375.65935547 22.73575195 376.31871094 22.08447266 376.99804688 C12.94002521 386.48630305 3.64265991 395.2262044 -7 403 C-8.15105017 403.85806152 -9.30209177 404.71613451 -10.453125 405.57421875 C-18.64275981 411.61177396 -27.14538276 416.99457302 -36 422 C-36.70721191 422.4021875 -37.41442383 422.804375 -38.14306641 423.21875 C-61.27845836 436.2441741 -86.44962409 444.99301461 -112.4375 450.3125 C-113.15639404 450.45985596 -113.87528809 450.60721191 -114.6159668 450.7590332 C-130.26225609 453.73289088 -145.73568046 454.37300362 -161.625 454.3125 C-162.64290619 454.31034485 -163.66081238 454.3081897 -164.70956421 454.30596924 C-179.31863523 454.25629854 -193.65075853 454.00540191 -208 451 C-209.46228027 450.70198486 -209.46228027 450.70198486 -210.95410156 450.39794922 C-264.61968822 439.17207047 -309.30087656 413.61389536 -347.9375 375.1875 C-349.02091675 374.11121338 -349.02091675 374.11121338 -350.1262207 373.01318359 C-353.96962253 369.1576518 -357.59309701 365.24696126 -361 361 C-360.67 360.34 -360.34 359.68 -360 359 C-359.47535156 359.44988281 -358.95070313 359.89976562 -358.41015625 360.36328125 C-327.79762883 385.78033813 -289.61647829 401.72417297 -251 410 C-250.02933594 410.21317871 -249.05867188 410.42635742 -248.05859375 410.64599609 C-216.84146897 417.19805907 -181.12456513 416.79336971 -150 410 C-149.00178223 409.79101074 -148.00356445 409.58202148 -146.97509766 409.36669922 C-99.72751047 399.26653446 -57.88172741 376.17349288 -23 343 C-22.43345703 342.46213867 -21.86691406 341.92427734 -21.28320312 341.37011719 C-13.24264659 333.68050207 -5.97326078 325.71102895 0.66894531 316.78417969 C2.0214254 314.97128085 3.39593443 313.17674757 4.7734375 311.3828125 C11.16015123 302.97624472 16.70173367 294.23475388 21.86083984 285.02734375 C22.90765887 283.16433792 23.97678881 281.31616361 25.05078125 279.46875 C37.02077681 258.16743525 44.67737256 234.56561962 49.75 210.75 C50.04837769 209.34995728 50.04837769 209.34995728 50.3527832 207.92163086 C53.45301866 192.60133388 54.37655528 177.71047275 54.3125 162.125 C54.31034485 161.18012726 54.3081897 160.23525452 54.30596924 159.26174927 C54.09853203 102.44014138 36.54747687 48.19429593 1.58203125 3.125 C0 1 0 1 0 0 Z " fill="#F4C534" transform="translate(418,58)"/>
<path d="M0 0 C0.77593506 0.34740234 1.55187012 0.69480469 2.35131836 1.05273438 C7.4590997 3.36098365 12.49696787 5.78603116 17.5 8.3125 C58.45785353 28.99408809 101.90719063 41.80296204 147.4375 28.3125 C148.19772461 28.09851563 148.95794922 27.88453125 149.74121094 27.6640625 C167.82408734 22.5088914 185.24190731 14.3761828 201.6640625 5.30078125 C206.37326286 2.7569837 211.24659591 0.57139443 216.125 -1.625 C216.98778564 -2.01510254 217.85057129 -2.40520508 218.73950195 -2.80712891 C225.05202829 -5.61784783 230.37823514 -7.44686315 237.4375 -6.6875 C240.79563187 -5.34424725 242.13198242 -4.10890355 244.25 -1.1875 C249.14376716 13.23623478 241.63247217 31.03951452 235.49853516 44.18798828 C230.42648096 54.3437673 223.88087307 63.76435913 216.4375 72.3125 C215.62925781 73.26511719 214.82101562 74.21773438 213.98828125 75.19921875 C207.25386636 82.96594361 199.77976735 89.32857585 191.4375 95.3125 C190.87691895 95.71597656 190.31633789 96.11945313 189.73876953 96.53515625 C158.90544818 118.35704558 118.71520976 125.86679129 81.6640625 120.125 C43.49367235 113.22164901 10.67448751 92.94579429 -12.125 61.5 C-23.24763258 45.15075998 -35.5364008 22.80300333 -32.5625 2.3125 C-31.33781093 -1.17315352 -29.69050909 -3.7928721 -26.75 -6.125 C-17.36281966 -8.53884637 -8.39943255 -3.79105212 0 0 Z " fill="#3F4346" transform="translate(149.5625,314.6875)"/>
<path d="M0 0 C10.49089106 5.11021695 16.37134493 12.14790205 20.5625 23 C25.15516772 41.45468309 14.89178021 61.15559324 5.60058594 76.62133789 C-2.63470901 89.96306758 -12.03005595 102.3615571 -22.09765625 114.36523438 C-23.3019449 115.83460696 -24.4372148 117.35990616 -25.5625 118.890625 C-27.4375 121 -27.4375 121 -29.27734375 122.01171875 C-32.63721564 121.9934916 -35.148302 120.4240831 -38 118.8125 C-38.64984863 118.45373779 -39.29969727 118.09497559 -39.96923828 117.7253418 C-59.68711542 106.66856657 -78.28900517 93.88611161 -94.4375 78 C-95.25863281 77.20335937 -96.07976562 76.40671875 -96.92578125 75.5859375 C-106.0794438 66.13997312 -111.85821695 54.73952541 -111.7109375 41.484375 C-110.98452697 32.22782944 -106.91940464 24.55861357 -100.4375 18 C-92.28035214 11.18497884 -83.94144289 8.40597629 -73.359375 8.71484375 C-63.37993524 9.68877303 -55.11621864 14.69515149 -48.4375 22 C-47.85742188 21.00419922 -47.85742188 21.00419922 -47.265625 19.98828125 C-36.99151147 2.56806401 -20.43915786 -7.75639837 0 0 Z " fill="#E24B4A" transform="translate(200.4375,137)"/>
<path d="M0 0 C8.50569194 4.48578745 13.01709325 9.91644467 17.49609375 18.31640625 C18.48609375 19.80140625 18.48609375 19.80140625 19.49609375 21.31640625 C20.05296875 20.7853125 20.60984375 20.25421875 21.18359375 19.70703125 C30.31563872 11.25371936 37.58625821 7.90343217 50.046875 8.04296875 C59.28105423 8.77501014 66.95842295 12.84245544 73.49609375 19.31640625 C75.83542598 22.16250848 77.73335469 25.08471798 79.49609375 28.31640625 C79.83640625 28.93 80.17671875 29.54359375 80.52734375 30.17578125 C83.83756022 37.34791693 83.64177083 45.99359689 81.65234375 53.5 C70.53555094 82.38112726 38.06207408 101.64869134 12.55859375 116.19140625 C11.83188477 116.61429932 11.10517578 117.03719238 10.35644531 117.47290039 C6.35497393 119.68689097 3.13141042 121.46277489 -1.50390625 120.31640625 C-4.07283258 118.15221492 -6.03168915 115.60172294 -8.06640625 112.94140625 C-8.6699292 112.17844238 -9.27345215 111.41547852 -9.89526367 110.62939453 C-11.79111507 108.2107455 -13.65225159 105.76901943 -15.50390625 103.31640625 C-16.37885742 102.16301758 -16.37885742 102.16301758 -17.27148438 100.98632812 C-26.95075124 88.13569737 -35.39989842 75.00653479 -42.37890625 60.50390625 C-42.74854492 59.73957275 -43.11818359 58.97523926 -43.49902344 58.18774414 C-49.32808348 45.72242011 -52.34036084 32.25474147 -48.47265625 18.703125 C-43.92907003 8.77034068 -36.37915031 2.57297696 -26.50390625 -1.68359375 C-18.20107262 -4.45120496 -7.94823478 -3.38951468 0 0 Z " fill="#E24B4A" transform="translate(334.50390625,137.68359375)"/>
<path d="M0 0 C0.99 0.33 1.98 0.66 3 1 C2.57847656 1.74765625 2.15695313 2.4953125 1.72265625 3.265625 C0.90087891 4.74289063 0.90087891 4.74289063 0.0625 6.25 C-0.75541016 7.71179688 -0.75541016 7.71179688 -1.58984375 9.203125 C-5.23551039 16.43386547 -5.03285278 25.2028344 -3.3515625 33.01171875 C7.08906515 64.28898362 45.04972379 84.05204908 72 99 C68.17690949 106.93375861 68.17690949 106.93375861 64.27734375 108.84375 C60.81742124 109.08113748 58.36108876 107.4647108 55.4375 105.8125 C54.78765137 105.45373779 54.13780273 105.09497559 53.46826172 104.7253418 C33.75038458 93.66856657 15.14849483 80.88611161 -1 65 C-1.82113281 64.20335937 -2.64226562 63.40671875 -3.48828125 62.5859375 C-12.6419438 53.13997312 -18.42071695 41.73952541 -18.2734375 28.484375 C-17.47861437 18.3560574 -12.60141763 10.01482154 -5.09765625 3.296875 C-3.25 1.875 -3.25 1.875 0 0 Z " fill="#D0403F" transform="translate(107,150)"/>
<path d="M0 0 C6.30735613 0.83137383 9.89851009 4.32905895 14 9 C19.8659631 18.65871678 22.00698766 26.71237091 21 38 C13.43583127 66.98419792 -20.31038524 86.84686803 -44.13671875 101.11328125 C-45.73364239 102.03963041 -47.33375766 102.96050648 -48.9375 103.875 C-49.66420898 104.29789307 -50.39091797 104.72078613 -51.13964844 105.15649414 C-55.18344356 107.3939022 -58.26014596 108.82075395 -63 108 C-64.8984375 106.5390625 -64.8984375 106.5390625 -66.375 104.625 C-66.87773437 103.99851562 -67.38046875 103.37203125 -67.8984375 102.7265625 C-69 101 -69 101 -69 99 C-68.44763672 98.69408936 -67.89527344 98.38817871 -67.32617188 98.07299805 C-55.11779861 91.28228007 -43.28102618 84.25030273 -32 76 C-31.41782715 75.57477051 -30.8356543 75.14954102 -30.23583984 74.71142578 C-6.067023 56.99761725 -6.067023 56.99761725 7 31 C7.61008889 21.84866663 7.79733277 14.09872306 3 6 C2.4225 4.824375 1.845 3.64875 1.25 2.4375 C0.8375 1.633125 0.425 0.82875 0 0 Z " fill="#D0403F" transform="translate(396,150)"/>
<path d="M0 0 C0.680625 -0.02835938 1.36125 -0.05671875 2.0625 -0.0859375 C4 0.375 4 0.375 5.72265625 2.1015625 C7.95292134 6.07102513 7.59732209 9.95481654 7 14.375 C5.34816433 19.57917044 2.82922296 23.61544402 -2 26.375 C-5.0625 26.875 -5.0625 26.875 -8 26.375 C-10.30275556 24.5079009 -11.67823871 23.01852259 -13 20.375 C-13.18340316 13.32707872 -11.58468867 7.78122248 -7 2.375 C-4.05916436 0.41444291 -3.31872048 0.06285455 0 0 Z " fill="#E76E6E" transform="translate(312,149.625)"/>
<path d="M0 0 C3.38606897 0.17396318 4.10854538 0.54970196 6.9375 2.75 C10.59130132 7.44774455 12.5548281 10.55652569 12.5625 16.625 C12.59150391 18.15833984 12.59150391 18.15833984 12.62109375 19.72265625 C12.00631057 23.24192688 10.9191162 24.40225771 8.125 26.5625 C3.99895994 27.36976871 2.48482438 26.79532754 -1.0625 24.5 C-5.58906718 20.24669015 -7.03485278 15.47083788 -7.25 9.375 C-7.27797625 6.41418004 -7.06028678 4.89014125 -5.59375 2.296875 C-3.875 0.5625 -3.875 0.5625 0 0 Z " fill="#E76E6E" transform="translate(193.875,149.4375)"/>
</svg>
