<?xml version="1.0" encoding="utf-8"?>
<!-- Generator: Adobe Illustrator 24.1.0, SVG Export Plug-In . SVG Version: 6.00 Build 0)  -->
<svg version="1.1" id="Capa_1" xmlns="http://www.w3.org/2000/svg" xmlns:xlink="http://www.w3.org/1999/xlink" x="0px" y="0px"
	 viewBox="0 0 512 512" style="enable-background:new 0 0 512 512;" xml:space="preserve">
<style type="text/css">
	.st0{fill:#FFD93B;}
	.st1{fill:#F4C534;}
	.st2{fill:#3E4347;}
	.st3{fill:#E24B4B;}
	.st4{fill:#D03F3F;}
	.st5{opacity:0.2;}
	.st6{fill:#FFFFFF;}
</style>
<circle class="st0" cx="256" cy="256" r="256"/>
<path class="st1" d="M512,256c0,141.4-114.6,256-256,256c-80.5,0-152.3-37.1-199.3-95.3c43.9,35.5,99.8,56.7,160.7,56.7
	c141.4,0,256-114.6,256-256c0-60.9-21.2-116.8-56.7-160.7C474.8,103.7,512,175.5,512,256z"/>
<path class="st2" d="M388.4,309.3c22.5,6.2-13.6,125.8-132.4,126.7C137.2,435,101.1,315.4,123.6,309.3c18-8.9,66.2,40.3,132.4,40.3
	C323.1,349.5,370.4,300.4,388.4,309.3z"/>
<path class="st3" d="M173.3,256.8c-1.4,1.7-3.7,2.1-5.6,1.1c-14.4-7.6-72.3-40-77.9-70.2c-3.5-19.1,9.1-37.4,28.2-41
	c13.8-2.6,27.1,3.3,34.9,14.1c3.3-12.8,13.8-23,27.5-25.5c19.1-3.5,37.3,9.1,40.8,28.2C226.8,193.6,184.1,244.5,173.3,256.8z"/>
<path class="st4" d="M179.4,249.6c-2.4,3-4.6,5.4-6.1,7.2c-1.4,1.7-3.7,2.1-5.6,1.1c-14.4-7.6-72.3-40-77.9-70.2
	c-3.2-17.2,6.6-33.7,22.5-39.4c-8.1,7.9-12.3,19.6-10,31.6C107.7,209.6,164,241.5,179.4,249.6z"/>
<g class="st5">
	
		<ellipse transform="matrix(0.9308 -0.3654 0.3654 0.9308 -45.8967 83.1107)" class="st6" cx="196.6" cy="162.8" rx="9.3" ry="13.9"/>
</g>
<path class="st3" d="M332.8,256.8c1.4,1.7,3.7,2.1,5.6,1.1c14.4-7.6,72.3-40,77.9-70.2c3.5-19.1-9.1-37.4-28.2-41
	c-13.8-2.6-27.1,3.3-34.9,14.1c-3.3-12.8-13.8-23-27.5-25.5c-19.1-3.5-37.3,9.1-40.8,28.2C279.3,193.6,322,244.5,332.8,256.8z"/>
<path class="st4" d="M326.7,249.6c2.4,3,4.6,5.4,6.1,7.2c1.4,1.7,3.7,2.1,5.6,1.1c14.4-7.6,72.3-40,77.9-70.2
	c3.2-17.2-6.6-33.7-22.5-39.4c8.1,7.9,12.3,19.6,10,31.6C398.4,209.6,342.1,241.5,326.7,249.6z"/>
<g class="st5">
	
		<ellipse transform="matrix(0.3654 -0.9308 0.9308 0.3654 44.7868 391.3619)" class="st6" cx="309.4" cy="162.8" rx="13.9" ry="9.3"/>
</g>
</svg>
